<?xml version="1.0" encoding="utf-8"?>
<!-- Generator: Adobe Illustrator 26.0.3, SVG Export Plug-In . SVG Version: 6.00 Build 0)  -->
<svg version="1.0" id="katman_1" xmlns="http://www.w3.org/2000/svg" xmlns:xlink="http://www.w3.org/1999/xlink" x="0px" y="0px"
	 viewBox="0 0 600 450" style="enable-background:new 0 0 600 450;" xml:space="preserve">
<style type="text/css">
	.st0{fill:#EC6525;}
</style>
<path class="st0" d="M412.7,82.1H187.5c-17,0-30.7,13.7-30.7,30.7V338c0,17,13.7,30.7,30.7,30.7h225.2c17,0,30.7-13.7,30.7-30.7
	V112.8C443.4,95.8,429.7,82.1,412.7,82.1z M228.5,327.7c-17,0-30.7-13.7-30.7-30.7c0-17,13.7-30.7,30.7-30.7s30.7,13.7,30.7,30.7
	C259.2,314,245.4,327.7,228.5,327.7z M329.3,327.7h-22c-3.8,0-7.1-3-7.3-6.8c-3.3-51.2-44.3-92.1-95.4-95.4
	c-3.8-0.2-6.8-3.5-6.8-7.3v-22c0-4.2,3.5-7.5,7.7-7.3c70.7,3.8,127.3,60.5,131.1,131.1C336.8,324.2,333.4,327.7,329.3,327.7
	L329.3,327.7z M395.2,327.7h-22c-3.9,0-7.1-3.1-7.3-7.1c-3.6-87.3-73.7-157.5-161.1-161.1c-3.9-0.2-7.1-3.4-7.1-7.3v-22
	c0-4.1,3.4-7.5,7.5-7.3c107.4,3.9,193.3,90.3,197.2,197.2C402.6,324.3,399.3,327.7,395.2,327.7L395.2,327.7z"/>
</svg>
