<svg xmlns="http://www.w3.org/2000/svg" version="1.1" viewBox="-5.0 -10.0 110.0 135.0">
 <path d="m85.938 14.062h-3.125v-6.25c0-1.7227-1.4023-3.125-3.125-3.125h-48.445c-0.86328 0-1.5625 0.69922-1.5625 1.5625s0.69922 1.5625 1.5625 1.5625h48.445v6.25h-59.375v-6.25h4.5273c0.86328 0 1.5625-0.69922 1.5625-1.5625s-0.69922-1.5625-1.5625-1.5625h-4.5273c-1.7227 0-3.125 1.4023-3.125 3.125v6.25h-3.125c-1.7227 0-3.125 1.4023-3.125 3.125v6.25c0 1.7227 1.4023 3.125 3.125 3.125h3.2656l0.90234 9.4062c-0.76953 0.074219-1.4922 0.41797-2.0156 0.99219-0.58984 0.65234-0.88281 1.5234-0.79688 2.3984l3.7617 39.211c0.19531 2.0234 1.6406 3.6172 3.5312 4.0859l0.80859 8.4141c0.23047 2.418 2.2383 4.2422 4.668 4.2422h43.629c2.4258 0 4.4336-1.8242 4.6641-4.2383l0.80859-8.4141c1.8906-0.46875 3.3398-2.0625 3.5312-4.0859l3.7656-39.215c0.082031-0.875-0.20703-1.75-0.80078-2.3984-0.52344-0.57422-1.2461-0.91797-2.0156-0.99219l0.90234-9.4062h3.2695c1.7227 0 3.125-1.4023 3.125-3.125v-6.25c0-1.7227-1.4023-3.125-3.125-3.125zm-14.125 78.125h-43.629c-0.80859 0-1.4766-0.60547-1.5547-1.4141l-0.76562-7.9609h48.266l-0.76562 7.9609c-0.078125 0.80469-0.74609 1.4141-1.5547 1.4141zm5.8945-13.914c-0.078125 0.80469-0.74609 1.4141-1.5547 1.4141h-52.305c-0.80859 0-1.4805-0.60938-1.5547-1.4141l-3.7617-39.211h62.941zm0.92578-42.336h-57.262l-0.89844-9.375h59.062l-0.89844 9.375zm7.3047-12.5h-71.875v-6.25h71.875z"/>
 <path d="m51.082 48.715c-2.7656 0.39453-5.5039 1.8281-7.7109 4.0312-2.2031 2.2031-3.6367 4.9414-4.0312 7.7109-0.41797 2.9336 0.35938 5.5586 2.1914 7.3906 1.5078 1.5078 3.5508 2.3008 5.8633 2.3008 0.49609 0 1.0078-0.035157 1.5234-0.10938 2.7656-0.39453 5.5039-1.8281 7.7109-4.0312 2.2031-2.2031 3.6367-4.9414 4.0312-7.7109 0.41797-2.9336-0.35938-5.5586-2.1914-7.3906s-4.457-2.6094-7.3906-2.1914zm-8.6523 12.184c0.30078-2.1016 1.418-4.2109 3.1484-5.9414s3.8398-2.8477 5.9414-3.1484c0.36719-0.050782 0.72266-0.078125 1.0664-0.078125 0.37109 0 0.73047 0.03125 1.0703 0.089843-2.3164 1.5352-3.793 4.0547-5.2148 6.5391-1.5117 2.6406-2.9531 5.1445-5.3359 6.4531-0.64453-1.0547-0.89453-2.4023-0.67969-3.9102zm15.141-3.0469c-0.30078 2.1016-1.418 4.2109-3.1484 5.9414s-3.8398 2.8477-5.9414 3.1484c-0.97656 0.14062-1.8867 0.085938-2.6992-0.14062 2.4531-1.7969 3.9883-4.4648 5.3789-6.8906 1.6367-2.8555 3.0781-5.3398 5.6016-6.1406 0.73438 1.0781 1.0391 2.4844 0.80859 4.082z"/>
 <path d="m76.367 42.188h-1.8047c-0.86328 0-1.5625 0.69922-1.5625 1.5625s0.69922 1.5625 1.5625 1.5625h1.8047c0.86328 0 1.5625-0.69922 1.5625-1.5625s-0.69922-1.5625-1.5625-1.5625z"/>
 <path d="m68.625 42.188h-6.125c-0.86328 0-1.5625 0.69922-1.5625 1.5625s0.69922 1.5625 1.5625 1.5625h6.125c0.86328 0 1.5625-0.69922 1.5625-1.5625s-0.69922-1.5625-1.5625-1.5625z"/>
<text x="0.0" y="117.5" font-size="5.0" font-weight="bold" font-family="Arbeit Regular, Helvetica, Arial-Unicode, Arial, Sans-serif" fill="#000000">Created by Bilicube Studio</text><text x="0.0" y="122.5" font-size="5.0" font-weight="bold" font-family="Arbeit Regular, Helvetica, Arial-Unicode, Arial, Sans-serif" fill="#000000">from Noun Project</text></svg>