<svg xmlns="http://www.w3.org/2000/svg" version="1.1" viewBox="-5.0 -10.0 110.0 135.0">
 <path d="m81.711 39-9.582-30.191c-0.40625-1.3047-1.6289-2.1836-3-2.1602h-35.301c-1.3828-0.007813-2.6094 0.90234-3 2.2305l-8.8281 30.121h-0.55859c-3.7109 0-7.1836 1.8164-9.293 4.8672-2.1094 3.0508-2.5859 6.9414-1.2773 10.41 1.3125 3.4688 4.2422 6.0742 7.8398 6.9688 3.5977 0.89453 7.4062-0.035156 10.188-2.4844 3.5625 3.125 8.6992 3.6875 12.852 1.4102v17c-8.2695 0.87891-18.852 3.25-18.852 9.6211 0 9.9062 25.383 10.207 28.273 10.207s28.27-0.28125 28.27-10.148c0-6.3711-10.578-8.7383-18.852-9.6211v-17c1.6641 0.89062 3.5234 1.3516 5.4102 1.3281 2.7305-0.003906 5.3672-1 7.4219-2.7969 2.7305 2.3828 6.4414 3.3125 9.9766 2.4922 3.5312-0.81641 6.457-3.2852 7.8594-6.6289 1.4023-3.3438 1.1133-7.1602-0.77734-10.254-1.8906-3.0977-5.1523-5.0938-8.7695-5.3711zm-8.8125 47.828c-2 1.6016-9.9219 3.9414-21.73 3.9414-11.809 0-19.711-2.3398-21.73-3.9414 1.4219-1.1211 5.75-2.6094 12.309-3.3906v1.0703l0.003906 0.003907c0 1.6094 1.3086 2.918 2.9219 2.918h13c0.77344 0 1.5117-0.30859 2.0586-0.85547s0.85156-1.2891 0.84766-2.0625v-1.082c6.5703 0.78125 10.91 2.2812 12.32 3.3984zm-25.32-5.2383v-20.59c2.332 0.78516 4.8516 0.78516 7.1836 0v20.59zm33.293-26.238c-1.9883-0.015624-3.7852-1.1875-4.6016-3-0.50781-1.0977-1.6094-1.8008-2.8203-1.8008-1.2109 0-2.3086 0.70312-2.8203 1.8008-0.82031 1.8047-2.6211 2.9609-4.6055 2.9609-1.9805 0-3.7812-1.1562-4.6016-2.9609-0.51172-1.0977-1.6133-1.8008-2.8203-1.8008-0.85547 0.003907-1.668 0.36719-2.2422 1-0.24609 0.23828-0.44141 0.52344-0.57812 0.83984-0.82031 1.8125-2.6211 2.9844-4.6094 3-1.9883-0.019531-3.7852-1.1914-4.6016-3-0.12109-0.25781-0.27734-0.5-0.46875-0.71094-0.6875-0.80078-1.7344-1.2031-2.7812-1.0586-1.0469 0.14453-1.9453 0.8125-2.3906 1.7695-0.82031 1.8047-2.6211 2.9609-4.6055 2.9609-1.9805 0-3.7812-1.1562-4.6055-2.9609-0.50781-1.0977-1.6094-1.8008-2.8203-1.8008-1.207 0-2.3086 0.70312-2.8203 1.8008-0.77734 1.6797-2.4062 2.8008-4.2539 2.9258-1.8477 0.12891-3.6172-0.76172-4.6133-2.3242-1-1.5586-1.0703-3.5352-0.18359-5.1602 0.89062-1.625 2.5898-2.6406 4.4414-2.6406 0.58203 0.003906 1.1562 0.11328 1.7031 0.32031 0.80859 0.28125 1.6992 0.22656 2.4688-0.15234 0.75781-0.39453 1.3242-1.0859 1.5586-1.9102l9-30.602 30.699 0.003906 9.6016 30.309c0.47266 1.4844 1.9688 2.3867 3.5 2.1211 0.28516-0.058594 0.57812-0.085938 0.87109-0.089844 2.8047 0 5.0781 2.2734 5.0781 5.0781 0 2.8047-2.2734 5.082-5.0781 5.082z"/>
<text x="0.0" y="117.5" font-size="5.0" font-weight="bold" font-family="Arbeit Regular, Helvetica, Arial-Unicode, Arial, Sans-serif" fill="#000000">Created by Yoo Seungyeon</text><text x="0.0" y="122.5" font-size="5.0" font-weight="bold" font-family="Arbeit Regular, Helvetica, Arial-Unicode, Arial, Sans-serif" fill="#000000">from Noun Project</text></svg>