<svg xmlns="http://www.w3.org/2000/svg" viewBox="0 0 64 80" x="0px" y="0px"><path d="M52,29H45V26a1,1,0,0,0-1-1H33V23H44a1,1,0,0,0,1-1V18a5,5,0,0,0-5-5H33V10.86a4,4,0,1,0-2,0V13H24a5,5,0,0,0-5,5v4a1,1,0,0,0,1,1H31v2H15a1,1,0,0,0-.84,1.54l4.37,6.85A3,3,0,0,1,19,35V58a3,3,0,0,0,3,3H42a3,3,0,0,0,3-3V53h3a7,7,0,0,0,7-7V32A3,3,0,0,0,52,29ZM30,7a2,2,0,1,1,2,2A2,2,0,0,1,30,7ZM21,18a3,3,0,0,1,3-3H40a3,3,0,0,1,3,3v3H21ZM43,58a1,1,0,0,1-1,1H22a1,1,0,0,1-1-1V35a5,5,0,0,0-.78-2.69L16.82,27H31V49H25a1,1,0,0,0,0,2H39a1,1,0,0,0,0-2H33V27H43ZM53,46a5,5,0,0,1-5,5H45V31h7a1,1,0,0,1,1,1Z"/><text x="0" y="79" fill="#000000" font-size="5px" font-weight="bold" font-family="'Helvetica Neue', Helvetica, Arial-Unicode, Arial, Sans-serif">Created by Cannavale</text><text x="0" y="84" fill="#000000" font-size="5px" font-weight="bold" font-family="'Helvetica Neue', Helvetica, Arial-Unicode, Arial, Sans-serif">from the Noun Project</text></svg>