<?xml version="1.0" encoding="UTF-8" standalone="no"?>
<svg
   viewBox="0 0 52.34 52.34"
   x="0px"
   y="0px"
   version="1.1"
   id="svg3"
   sodipodi:docname="url-link.svg"
   width="52.34"
   height="52.34"
   inkscape:version="1.4.2 (ebf0e940d0, 2025-05-08)"
   xmlns:inkscape="http://www.inkscape.org/namespaces/inkscape"
   xmlns:sodipodi="http://sodipodi.sourceforge.net/DTD/sodipodi-0.dtd"
   xmlns="http://www.w3.org/2000/svg"
   xmlns:svg="http://www.w3.org/2000/svg"
   xmlns:rdf="http://www.w3.org/1999/02/22-rdf-syntax-ns#"
   xmlns:cc="http://creativecommons.org/ns#"
   xmlns:dc="http://purl.org/dc/elements/1.1/">
  <defs
     id="defs3" />
  <sodipodi:namedview
     id="namedview3"
     pagecolor="#ffffff"
     bordercolor="#000000"
     borderopacity="0.25"
     inkscape:showpageshadow="2"
     inkscape:pageopacity="0.0"
     inkscape:pagecheckerboard="0"
     inkscape:deskcolor="#d1d1d1"
     inkscape:zoom="14.4375"
     inkscape:cx="25.904762"
     inkscape:cy="34.38961"
     inkscape:window-width="2256"
     inkscape:window-height="1428"
     inkscape:window-x="0"
     inkscape:window-y="0"
     inkscape:window-maximized="1"
     inkscape:current-layer="svg3" />
  <title
     id="title1">1</title>
  <g
     data-name="Layer 62"
     id="g2"
     inkscape:export-filename="g2.svg"
     inkscape:export-xdpi="96"
     inkscape:export-ydpi="96"
     transform="translate(-5.83,-5.83)">
    <path
       d="m 56.17,30 a 2,2 0 0 0 -2,2 V 54.17 H 9.83 V 9.83 H 32 a 2,2 0 0 0 0,-4 H 7.83 a 2,2 0 0 0 -2,2 v 48.34 a 2,2 0 0 0 2,2 h 48.34 a 2,2 0 0 0 2,-2 V 32 a 2,2 0 0 0 -2,-2 z"
       id="path1" />
    <path
       d="m 58.13,7.44 c 0,-0.06 0,-0.12 -0.05,-0.17 a 2,2 0 0 0 -0.06,-0.2 2,2 0 0 0 -0.1,-0.2 c 0,0 0,-0.1 -0.08,-0.15 A 2,2 0 0 0 57.29,6.17 L 57.14,6.09 56.94,5.99 56.74,5.93 56.56,5.88 a 2,2 0 0 0 -0.38,0 H 41.34 a 2,2 0 0 0 0,4 h 10 L 30.59,30.59 a 2.0011122,2.0011122 0 1 0 2.83,2.83 L 54.17,12.66 v 10 a 2,2 0 0 0 4,0 V 7.83 A 2,2 0 0 0 58.13,7.44 Z"
       id="path2" />
  </g>
  <metadata
     id="metadata3">
    <rdf:RDF>
      <cc:Work
         rdf:about="">
        <dc:title>1</dc:title>
      </cc:Work>
    </rdf:RDF>
  </metadata>
</svg>
